<svg width="288" height="387" viewBox="0 0 288 387" fill="none" xmlns="http://www.w3.org/2000/svg">
<rect width="48" height="48" rx="12" fill="#FA541C"/>
<path d="M28.5 20.6303C28.09 20.6303 27.75 20.2903 27.75 19.8803V18.5003C27.75 17.4503 27.3 16.4303 26.52 15.7203C25.73 15.0003 24.71 14.6703 23.63 14.7703C21.83 14.9403 20.25 16.7803 20.25 18.7003V19.6703C20.25 20.0803 19.91 20.4203 19.5 20.4203C19.09 20.4203 18.75 20.0803 18.75 19.6703V18.6903C18.75 16.0003 20.92 13.5203 23.49 13.2703C24.99 13.1303 26.43 13.6003 27.53 14.6103C28.62 15.6003 29.25 17.0203 29.25 18.5003V19.8803C29.25 20.2903 28.91 20.6303 28.5 20.6303Z" fill="white"/>
<path d="M27.0037 34.75H21.0037C16.3837 34.75 15.5237 32.6 15.3037 30.51L14.5537 24.52C14.4437 23.44 14.4037 21.89 15.4537 20.73C16.3537 19.73 17.8437 19.25 20.0037 19.25H28.0037C30.1737 19.25 31.6637 19.74 32.5537 20.73C33.5937 21.89 33.5637 23.44 33.4537 24.5L32.7037 30.51C32.4837 32.6 31.6237 34.75 27.0037 34.75ZM20.0037 20.75C18.3137 20.75 17.1537 21.08 16.5637 21.74C16.0737 22.28 15.9137 23.11 16.0437 24.35L16.7937 30.34C16.9637 31.94 17.4037 33.26 21.0037 33.26H27.0037C30.6037 33.26 31.0437 31.95 31.2137 30.36L31.9637 24.35C32.0937 23.13 31.9337 22.3 31.4437 21.75C30.8537 21.08 29.6937 20.75 28.0037 20.75H20.0037Z" fill="white"/>
<path d="M27.4163 25.1504C26.8563 25.1504 26.4062 24.7004 26.4062 24.1504C26.4062 23.6004 26.8562 23.1504 27.4062 23.1504C27.9562 23.1504 28.4062 23.6004 28.4062 24.1504C28.4062 24.7004 27.9663 25.1504 27.4163 25.1504Z" fill="white"/>
<path d="M20.4163 25.1504C19.8563 25.1504 19.4062 24.7004 19.4062 24.1504C19.4062 23.6004 19.8562 23.1504 20.4062 23.1504C20.9562 23.1504 21.4062 23.6004 21.4062 24.1504C21.4062 24.7004 20.9663 25.1504 20.4163 25.1504Z" fill="white"/>
</svg>
